<?xml version="1.0" standalone="no"?>
<!DOCTYPE svg PUBLIC "-//W3C//DTD SVG 1.1//EN" "http://www.w3.org/Graphics/SVG/1.1/DTD/svg11.dtd">
<svg xmlns="http://www.w3.org/2000/svg">
<metadata>Copyright (C) 2015 by original authors @ fontello.com</metadata>
<defs>
<font id="fontello" horiz-adv-x="1000" >
<font-face font-family="fontello" font-weight="400" font-stretch="normal" units-per-em="1000" ascent="850" descent="-150" />
<missing-glyph horiz-adv-x="1000" />
<glyph glyph-name="check" unicode="&#xe800;" d="m248 0c-23 0-41 9-56 28 0 0-180 236-180 236-11 16-15 33-12 52 3 19 11 34 26 46 15 12 32 17 51 14 19-3 35-12 47-28 0 0 118-154 118-154 0 0 296 474 296 474 11 16 25 26 43 30 18 4 36 1 53-8 16-11 26-25 30-43 4-18 1-36-8-53 0 0-350-560-350-560-13-21-32-32-56-32 0 0-2-2-2-2" horiz-adv-x="666" />
<glyph glyph-name="check-circled" unicode="&#xe801;" d="m0 350q0 207 147 354t353 146 354-146 146-354-146-354-354-146-353 146-147 354z m109 0q0-162 115-276t276-115 276 115 115 276-115 276-276 115-276-115-115-276z m106-51l94 92 93-94 289 291 94-93-291-289-92-94-93 94z" horiz-adv-x="1000" />
<glyph glyph-name="device" unicode="&#xe802;" d="m317 82l-32-99c0-7 7-13 16-13h213c9 0 16 6 16 13l-32 99h-181z m-275 605h728v-225h45v205c0 32-26 58-58 58h-699c-32 0-58-26-58-58v-503c0-32 26-58 58-58h532v56h-548v525z m937-253h-340c-12 0-22-9-22-19v-425c0-11 10-20 22-20h340c12 0 21 9 21 20v425c0 10-9 19-21 19z m-170-450c-6 0-11 5-11 11 0 6 5 10 11 10 5 0 10-4 10-10 0-6-5-11-10-11z m143 34h-287v375h287v-375z" horiz-adv-x="1000" />
<glyph glyph-name="download" unicode="&#xe803;" d="m714 100q0 15-10 25t-25 11-26-11-10-25 10-25 26-11 25 11 10 25z m143 0q0 15-10 25t-26 11-25-11-10-25 10-25 25-11 26 11 10 25z m72 125v-179q0-22-16-37t-38-16h-821q-23 0-38 16t-16 37v179q0 22 16 38t38 16h259l75-76q33-32 76-32t76 32l76 76h259q22 0 38-16t16-38z m-182 318q10-23-8-40l-250-250q-10-10-25-10t-25 10l-250 250q-17 17-8 40 10 21 33 21h143v250q0 15 11 25t25 11h143q14 0 25-11t10-25v-250h143q24 0 33-21z" horiz-adv-x="929" />
<glyph glyph-name="edit" unicode="&#xe804;" d="m960 694l-131 132c-16 15-37 24-59 24-22 0-43-9-58-24l-89-89c-18 6-38 2-51-11l-37-38c-16-15-19-38-10-56l-425-426c-2-1-3-3-4-4 0 0 0 0 0-1-1-1-2-3-2-4 0 0 0-1-1-1l-75-229-7-22-9-28c0-1-1-2-1-3-3-14 0-25 4-32 1-2 3-4 4-6 8-9 20-15 34-15l0 0c5 0 8 1 9 1 0 0 0 0 1 0h0c1 0 2 1 3 1l36 12 243 80c0 0 0 0 0 0 4 1 7 3 10 6l427 427c5-3 11-4 17-4 13 0 26 5 35 15l38 37c14 14 18 35 11 53l87 88c33 32 33 85 0 117m-633-680l-69 69 406 406 69-69-406-406z m232 580l69-69-406-406-69 69 406 406z m-454-662l-34 34 57 176 76-76 0 0 0 0 76-76-175-58z m691 509c-1 2-1 3-2 4l-210 210c-2 2-5 3-7 4l29 31 3-2 0 0 213-214c1 0 2-1 3-1l1-2-30-30z m129 171l-85-84-178 177 85 85c12 13 34 13 46 0l132-131c13-13 13-34 0-47" horiz-adv-x="1000" />
<glyph glyph-name="help-circled" unicode="&#xe805;" d="m454 810c127 1 235-42 326-130 91-88 137-195 140-322 1-127-42-236-131-327-89-91-196-138-323-141-127-1-236 42-327 131-91 89-138 196-139 323-3 127 41 236 130 327 89 91 197 138 324 139 0 0 0 0 0 0m-2-740c20 0 36 6 49 19 13 13 19 28 19 47 1 20-4 36-17 49-13 13-29 19-49 19 0 0-2 0-2 0-19 0-34-6-47-18-13-12-20-27-21-46 0-20 6-36 19-49 13-13 28-20 47-21 0 0 2 0 2 0 0 0 0 0 0 0m166 328c17 23 26 49 26 78 0 52-18 91-54 116-35 25-79 38-134 38-43 0-77-9-104-26-45-28-69-77-72-146 0 0 0-4 0-4 0 0 110 0 110 0 0 0 0 4 0 4 0 17 5 35 16 54 11 16 29 24 54 24 27 0 44-7 52-20 11-13 16-28 16-44 0-12-5-25-16-40-5-8-12-15-20-20 0 0-6-4-6-4-4-3-9-6-16-11-7-5-13-10-20-15-7-5-14-11-21-17-7-6-13-12-17-17-9-13-15-39-18-78 0 0 0-8 0-8 0 0 108 0 108 0 0 0 0 4 0 4 0 8 1 17 4 28 4 13 13 25 28 36 0 0 28 18 28 18 31 23 49 39 56 50 0 0 0 0 0 0" horiz-adv-x="920" />
<glyph glyph-name="internet" unicode="&#xe806;" d="m500 850c-276 0-500-224-500-500 0-276 224-500 500-500 276 0 500 224 500 500 0 276-224 500-500 500z m62-924c-14-2-27-4-41-4v190h158c-27-88-69-155-117-186z m-240 186h157v-190c-14 0-27 2-39 3-49 31-91 99-118 187z m-250 217h173c2-62 9-121 21-174h-148c-27 53-43 111-46 174z m368 446c12 1 25 3 39 3v-193h-158c27 89 69 158 119 190z m240-190h-159v193c14 0 27-2 41-4 49-31 91-100 118-189z m12-43c12-52 20-110 21-171h-192v171h171z m-213 0v-171h-191c2 61 9 119 21 171h170z m-234-171h-173c3 62 19 119 45 171h148c-11-52-18-110-20-171z m43-42h191v-174h-169c-13 53-20 112-22 174z m233-174v174h192c-1-62-9-121-22-174h-170z m235 174h172c-3-63-19-121-46-174h-147c12 53 19 112 21 174z m0 42c-2 61-8 119-20 171h147c26-52 42-109 45-171h-172z m103 214h-134c-19 68-46 126-79 168 87-31 162-91 213-168z m-503 169c-33-43-61-101-80-169h-135c51 77 126 137 215 169z m-213-642h134c19-67 46-124 79-166-87 31-162 90-213 166z m503-165c32 42 59 99 79 165h132c-51-75-125-134-211-165z" horiz-adv-x="1000" />
<glyph glyph-name="iptv" unicode="&#xe807;" d="m329 707l161-121h-359c-64 0-115-51-115-115v-442c0-64 51-115 115-115h731c64 0 116 51 116 115v442c0 64-52 115-116 115h-372l271 217m-351-793c-276 0-298 0-298 240 0 240 22 240 298 240 276 0 299 0 299-240 0-240-23-240-299-240z" horiz-adv-x="1000" />
<glyph glyph-name="lang" unicode="&#xe808;" d="m499 850c-275 0-499-224-499-499 0-275 224-499 499-499 275 0 499 224 499 499 0 275-224 499-499 499z m0-927c-125 0-238 54-316 140 3 10 24 72 38 100 16 31 21 34 55 65 34 31-68 45-92 69-24 24-36 24-64 45-20 16-32-55-37-93-8 33-12 67-12 102 0 91 29 175 77 245-14-43-26-104 27-86 58 21 64 45 64 45l34 60c0 0 5-84 12-96 7-12 34-46 44 2 19 88 22 113 55 113 32 0 99 25 106-53 7-79-7-33-50-53-42-21-53-93-13-101 39-9 128-45 128-45l45-50 13-53c0 0 9-59 9-65 0-5 0-54 0-54s2-108 41-83c39 26 147 194 125 257-22 63-24 70 17 93 41 22 70 49 68 80-1 22 1 35 2 49 33-61 52-131 52-205 0-236-192-428-428-428z" horiz-adv-x="1000" />
<glyph glyph-name="lock" unicode="&#xe809;" d="m179 421h285v108q0 59-42 101t-101 41-101-41-41-101v-108z m464-53v-322q0-22-16-37t-38-16h-535q-23 0-38 16t-16 37v322q0 22 16 38t38 15h17v108q0 102 74 176t176 74 177-74 73-176v-108h18q23 0 38-15t16-38z" horiz-adv-x="643" />
<glyph glyph-name="minus-circled" unicode="&#xe80a;" d="m0 350q0 207 147 354t353 146 354-146 146-354-146-354-354-146-353 146-147 354z m213-82l574 0 0 164-574 0 0-164z" horiz-adv-x="1000" />
<glyph glyph-name="parental" unicode="&#xe80b;" d="m496 643c-10-3-18-12-20-23l-7-42c-1-1-1-3-1-4l-45-248c-3-17 8-33 24-36l0 0c16-2 32 8 35 25l7 42c1 1 1 3 1 4l38 172-1-317v-81-107-146c0-16 14-30 30-30l0 0c16 0 30 14 30 30v146 107 76l90 0v-76-107-146c0-16 14-30 30-30l0 0c16 0 30 14 30 30v146 107 82l0 316 37-173c0-2 0-3 0-4l8-42c3-17 19-28 35-25v0c16 3 27 19 24 35l-45 249c0 1 0 2-1 4l-7 42c-3 16-19 27-35 24l0 0h0l-250 2c-2 0-5 0-7-2l0 0 0 0z m136 207c44 0 80-36 80-81 0-44-36-80-80-80-44 0-80 36-80 80 0 45 36 81 80 81h0l0 0z m-448-560c-6-2-11-7-12-13l-4-25c0-1-1-2-1-2l-26-148c-2-9 5-19 14-20l0 0c10-2 19 4 21 14l4 25c0 1 1 2 1 2l22 102-1-187v-48-64-57c0-10 9-18 18-18l0 0c10 0 23 8 23 18v57 64 44l44 1v-45-64-57c0-10 12-18 22-18l0 0c10 0 18 8 18 18v57 64 48l0 187 136 68-8 50-119-53h0 0l-147 2c-2 0-4-1-5-2l0 0 0 0z m80 123c27 0 48-22 48-48 0-26-21-48-48-48-26 0-47 22-47 48 0 26 21 48 47 48l0 0 0 0z" horiz-adv-x="1000" />
<glyph glyph-name="status" unicode="&#xe80c;" d="m549-134c-20 0-37 13-41 32l-156 702-94-365c-4-19-21-32-40-32h-176c-23 0-42 19-42 42s19 42 42 42h143l129 504c5 19 22 33 42 32 19 0 36-14 40-33l151-679 77 386c3 18 18 31 36 33 18 3 35-7 43-23l92-192h162c23 0 42-19 42-42 0-23-19-42-42-42h-188c-16 0-31 9-38 24l-49 102-92-458c-4-19-21-33-41-33 0 0 0 0 0 0l0 0z" horiz-adv-x="1000" />
<glyph glyph-name="system" unicode="&#xe80d;" d="m959 41v-24c0-10-8-18-17-18h-13c-10 0-24-21-28-28-4-7-1-19 6-26l9-9c7-7 7-18 0-25l-17-17c-7-7-18-7-25 0l-9 9c-7 7-32 3-40 0-8-2-14-13-14-22v-13c0-10-8-18-18-18h-24c-10 0-18 8-18 18v13c0 9-21 24-28 28-7 3-19 1-26-6l-9-9c-7-7-18-7-25 0l-17 17c-7 7-7 18 0 25l9 9c7 7 3 32 0 40-2 8-12 14-22 14h-13c-9 0-18 8-18 18v24c0 10 9 18 18 18h13c10 0 24 21 28 28 4 7 1 19-6 26l-9 9c-7 7-7 18 0 25l17 17c7 7 18 7 25 0l9-9c7-7 32-3 40 0 8 2 14 13 14 22v13c0 10 8 18 18 18h24c10 0 18-8 18-18v-13c0-9 21-24 28-28 7-4 19-1 26 6l9 9c7 7 18 7 25 0l17-17c7-7 7-18 0-25l-9-9c-7-7-3-32 0-40 2-8 13-14 22-14h13c9 0 17-8 17-18z m-118-12c0 33-27 59-60 59-33 0-60-26-60-59 0-33 27-60 60-60 33 0 60 27 60 60z m-96 488v-48c0-19-16-36-35-36h-25c-20 1-49-41-56-56-8-14-3-38 11-51l18-18c13-14 13-37 0-51l-34-33c-14-14-37-14-51 0l-17 17c-14 14-63 5-79 0-16-5-29-25-29-45v-24c0-20-16-36-36-36h-48c-19 0-35 16-35 36v24c0 20-42 49-57 57-14 7-37 2-51-12l-18-17c-14-14-36-14-50 0l-34 34c-14 13-14 36 0 50l17 18c14 13 6 63 1 79-5 16-26 29-45 29h-25c-20 0-36 16-36 35v48c0 19 16 36 36 36h25c19 0 48 41 56 56 8 14 3 38-11 52l-18 17c-14 14-14 37 0 51l34 33c14 14 36 14 50 0l18-17c14-14 63-5 79 0 16 5 29 25 29 45v24c0 20 16 36 36 36h47c20 0 36-16 36-36v-24c0-20 42-49 56-57 15-7 38-2 52 12l17 17c14 14 37 14 51 0l34-33c13-14 13-37 0-51l-18-17c-14-14-5-64 0-80 5-15 25-28 45-28h25c19 0 35-17 35-36z m-202-24c0 85-69 155-155 155-85 0-155-70-155-155 0-85 70-155 155-155 86 0 155 70 155 155z" horiz-adv-x="1000" />
<glyph glyph-name="toggle-off" unicode="&#xe80e;" d="m643 350q0 58-23 111t-61 91-91 61-111 23-111-23-91-61-61-91-23-111 23-111 61-91 91-61 111-23 111 23 91 61 61 91 23 111z m428 0q0 58-22 111t-61 91-92 61-110 23h-216q67-51 106-125t38-161-38-161-106-125h216q58 0 110 23t92 61 61 91 22 111z m72 0q0-73-29-139t-76-113-114-77-138-28h-429q-72 0-138 28t-114 77-76 113-29 139 29 139 76 114 114 76 138 28h429q72 0 138-28t114-76 76-114 29-139z" horiz-adv-x="1143" />
<glyph glyph-name="toggle-on" unicode="&#xe80f;" d="m0 350q0 73 29 139t76 114 114 76 138 28h429q72 0 138-28t114-76 76-114 29-139-29-139-76-113-114-77-138-28h-429q-72 0-138 28t-114 77-76 113-29 139z m786-286q58 0 110 23t92 61 61 91 22 111-22 111-61 91-92 61-110 23-111-23-91-61-61-91-23-111 23-111 61-91 91-61 111-23z" horiz-adv-x="1143" />
<glyph glyph-name="upload" unicode="&#xe810;" d="m714 29q0 14-10 25t-25 10-26-10-10-25 10-26 26-10 25 10 10 26z m143 0q0 14-10 25t-26 10-25-10-10-25 10-26 25-10 26 10 10 26z m72 125v-179q0-22-16-38t-38-16h-821q-23 0-38 16t-16 38v179q0 22 16 38t38 15h238q12-31 39-51t62-20h143q34 0 61 20t40 51h238q22 0 38-15t16-38z m-182 361q-9-22-33-22h-143v-250q0-15-10-25t-25-11h-143q-15 0-25 11t-11 25v250h-143q-23 0-33 22-9 22 8 39l250 250q10 10 25 10t25-10l250-250q18-17 8-39z" horiz-adv-x="929" />
<glyph glyph-name="usb" unicode="&#xe811;" d="m149 428l23 22-135 144-21 23 23 21 201 190 23 22 22-23 135-143 21 19 235-249 58-171 55-57-182-171-54 57-165 61-239 255 0 0z m81 227l28-29 49 46-28 29-49-46 0 0z m-63-60l27-29 49 46-27 29-49-46 0 0z m52-101l155 146-113 121-156-147 114-120 0 0z m474-423l209-222 73 68-209 223-73-69z" horiz-adv-x="1000" />
<glyph glyph-name="user" unicode="&#xe812;" d="m786 66q0-67-41-106t-108-39h-488q-67 0-108 39t-41 106q0 30 2 58t8 61 15 60 24 55 34 45 48 30 62 11q5 0 24-12t41-27 60-27 75-12 74 12 61 27 41 27 24 12q34 0 62-11t48-30 34-45 24-55 15-60 8-61 2-58z m-179 498q0-88-63-151t-151-63-152 63-62 151 62 152 152 63 151-63 63-152z" horiz-adv-x="786" />
<glyph glyph-name="users" unicode="&#xe813;" d="m331 350q-90-3-148-71h-75q-45 0-77 22t-31 66q0 197 69 197 4 0 25-11t54-24 66-12q38 0 75 13-3-21-3-37 0-78 45-143z m598-356q0-66-41-105t-108-39h-488q-68 0-108 39t-41 105q0 30 2 58t8 61 14 61 24 54 35 45 48 30 62 11q6 0 24-12t41-26 59-27 76-12 75 12 60 27 41 26 23 12q35 0 63-11t47-30 35-45 24-54 15-61 8-61 2-58z m-572 713q0-59-42-101t-101-42-101 42-42 101 42 101 101 42 101-42 42-101z m393-214q0-89-63-152t-151-62-152 62-63 152 63 151 152 63 151-63 63-151z m321-126q0-43-31-66t-77-22h-75q-57 68-147 71 45 65 45 143 0 16-3 37 37-13 74-13 33 0 67 12t54 24 24 11q69 0 69-197z m-71 340q0-59-42-101t-101-42-101 42-42 101 42 101 101 42 101-42 42-101z" horiz-adv-x="1071" />
<glyph glyph-name="wired" unicode="&#xe814;" d="m416 538h166c23 0 42 19 42 42v166c0 23-19 42-42 42h-166c-23 0-42-19-42-42v-166c0-23 19-42 42-42z m-208-374h-166c-23 0-42-19-42-42v-166c0-23 19-42 42-42h166c23 0 42 19 42 42v166c0 23-19 42-42 42z m374 0h-166c-23 0-42-19-42-42v-166c0-23 19-42 42-42h166c23 0 42 19 42 42v166c0 23-19 42-42 42z m375 0h-167c-23 0-41-19-41-42v-166c0-23 18-42 41-42h167c23 0 41 19 41 42v166c0 23-18 42-41 42z" horiz-adv-x="1000" />
<glyph glyph-name="wireless" unicode="&#xe815;" d="m288 207l67-67c37 38 88 63 145 63 57 0 109-25 145-63l67 67c-53 56-128 91-212 91-83 0-158-35-212-91z m212-108c-28 0-54-13-71-33l71-71 71 71c-17 20-42 33-71 33z m496 401c-274 274-718 273-992 0-1-2-3-3-4-5l69-69c110 112 262 181 431 181 169 0 322-69 431-181l69 69c-1 2-2 3-4 5z m-496 4c-133 0-259-52-353-147-2-1-3-3-5-4l73-72c72 74 173 121 285 121 112 0 213-47 286-121l72 72c-2 1-3 3-4 4-95 95-220 147-354 147z" horiz-adv-x="1000" />
<glyph glyph-name="advanced" unicode="&#xe816;" d="m155 499c47 37 86 12 138-48 5-7 13 1 18 5 4 4 72 65 76 68 3 3 7 8 2 15s-25 31-37 47c-91 119 248 199 196 200-27 1-133 2-149 1-64-7-145-67-186-95-53-37-73-58-76-61-15-13-2-43-30-67-29-26-47-6-63-21-9-7-32-25-38-31-7-5-8-15-1-23 0 0 63-70 68-76 6-7 20-12 29-4 9 8 31 28 35 31 4 4-2 43 18 59z m286-26c-6 7-13 7-19 2l-72-63c-6-5-7-14-2-20l416-473c10-12 27-13 38-3l49 41c11 9 12 26 2 38l-412 478z m555 202c-4 25-17 19-23 9-7-11-36-55-48-76-13-20-42-59-97-20-58 40-38 69-28 88 10 19 41 73 46 80 4 7-1 26-19 18-18-8-127-51-142-113-15-63 13-120-42-176l-68-70 68-78 83 78c20 20 62 40 100 31 82-19 127 12 154 63 24 45 20 141 16 166z m-861-685c-10-11-10-28 0-38l48-47c11-11 27-6 37 4l247 242-76 86-256-247z" horiz-adv-x="1000" />
<glyph glyph-name="cancel-circled" unicode="&#xe817;" d="m0 350q0 207 147 354t353 146 354-146 146-354-146-354-354-146-353 146-147 354z m109 0q0-162 115-276t276-115 276 115 115 276-115 276-276 115-276-115-115-276z m145-137l137 137-137 137 109 109 137-137 137 137 109-109-137-137 137-137-109-109-137 137-137-137z" horiz-adv-x="1000" />
<glyph glyph-name="cancel" unicode="&#xe818;" d="m452 194c12-12 18-26 18-43 0-17-6-31-18-43-12-11-26-16-43-16-17 0-31 5-43 16 0 0-132 152-132 152 0 0-132-152-132-152-12-11-26-16-43-16-17 0-31 5-43 16-11 12-16 26-16 43 0 17 5 31 16 43 0 0 138 156 138 156 0 0-138 158-138 158-11 12-16 26-16 43 0 17 5 31 16 43 12 11 26 16 43 16 17 0 31-5 43-16 0 0 132-152 132-152 0 0 132 152 132 152 12 11 26 16 43 16 17 0 31-5 43-16 12-12 18-26 18-43 0-17-6-31-18-43 0 0-138-158-138-158 0 0 138-156 138-156" horiz-adv-x="470" />
<glyph glyph-name="attention" unicode="&#xe819;" d="m957-24c6-11 6-22 0-34-7-11-17-16-30-16 0 0-892 0-892 0-12 0-22 5-28 16-9 12-9 23-2 34 0 0 446 782 446 782 5 12 15 18 30 18 14 0 24-6 30-18 0 0 446-782 446-782m-420 50c0 0 0 100 0 100 0 0-110 0-110 0 0 0 0-100 0-100 0 0 110 0 110 0 0 0 0 0 0 0m0 174c0 0 0 300 0 300 0 0-110 0-110 0 0 0 0-300 0-300 0 0 110 0 110 0 0 0 0 0 0 0" horiz-adv-x="962" />
<glyph glyph-name="plus-circled" unicode="&#xe81a;" d="m0 350q0 207 147 354t353 146 354-146 146-354-146-354-354-146-353 146-147 354z m219-80l201 0 0-201 160 0 0 201 201 0 0 160-201 0 0 201-160 0 0-201-201 0 0-160z" horiz-adv-x="1000" />
<glyph glyph-name="refresh" unicode="&#xe81b;" d="m408 760c112 0 208-39 287-116 79-77 120-171 123-282 0 0 122 0 122 0 0 0-184-206-184-206 0 0-184 206-184 206 0 0 144 0 144 0-3 83-34 153-94 210-60 57-131 86-214 86-84 0-156-30-216-90-60-60-90-133-90-218 0-84 30-156 90-216 60-60 132-90 216-90 69 0 130 20 182 60 0 0 70-76 70-76-73-59-157-88-252-88-112 0-208 40-288 120-80 80-120 177-120 290 0 113 40 210 120 290 80 80 176 120 288 120 0 0 0 0 0 0" horiz-adv-x="940" />
<glyph glyph-name="repeater" unicode="&#xe81c;" d="m526 587l24 28c31-36 50-78 54-124 4-47-9-92-35-134l-29 24c19 33 28 70 25 107-3 36-17 70-39 99l0 0z m122 125l32 36c59-58 96-130 102-210 6-81-20-159-70-227l-38 31c41 58 62 124 57 192-6 67-36 128-83 178l0 0z m-205-289c-36 0-65 29-65 65 0 35 29 65 65 65 35 0 65-30 65-65 0-36-29-65-65-65l0 0z m300 374l48 53c86-86 140-191 149-308 10-119-29-233-103-333l-55 45c60 86 91 182 83 282-8 98-52 187-122 261l0 0z m-566-85l32 36c59-58 96-130 102-210 7-81-19-159-70-227l-37 31c41 58 62 124 56 192-5 67-35 128-83 178l0 0z m-114-49l32 37c41-48 66-104 71-164 5-62-12-122-46-177l-38 31c25 45 37 93 33 142-4 48-22 92-52 131l0 0z" horiz-adv-x="1000" />
<glyph glyph-name="router" unicode="&#xe81d;" d="m0-67c0-46 37-83 83-83h833c46 0 83 37 83 83v229c0 46-37 84-83 84h-250v218c0 29-23 52-52 52-29 0-52-23-52-52v-218h-479c-46 0-83-38-83-84v-229l0 0z m104 115c0 29 23 52 52 52 29 0 52-23 52-52 0-29-23-52-52-52-29 0-52 23-52 52l0 0z m188 0c0 29 23 52 52 52 28 0 52-23 52-52 0-29-24-52-52-52-29 0-52 23-52 52l0 0z m322 635c-120 0-218-98-218-219 0-28 23-52 52-52 28 0 52 24 52 52 0 64 51 115 114 115 64 0 115-51 115-115 0-28 23-52 52-52 29 0 52 24 52 52 0 121-98 219-219 219l0 0z m0 167c-212 0-385-173-385-386 0-28 23-52 52-52 29 0 52 24 52 52 0 156 126 281 281 281 156 0 281-125 281-281 0-28 24-52 52-52 29 0 52 24 52 52 0 213-172 386-385 386l0 0z" horiz-adv-x="1000" />
</font>
</defs>
</svg>
